<svg width="5" height="8" viewBox="0 0 5 8" fill="none" xmlns="http://www.w3.org/2000/svg">
<path fill-rule="evenodd" clip-rule="evenodd" d="M2.97934 0.860556C2.97441 0.855622 2.96938 0.850855 2.96425 0.846253L2.96425 7.15322C2.96938 7.14862 2.97441 7.14385 2.97934 7.13892L4.4124 5.70417C4.51003 5.60642 4.66832 5.60642 4.76595 5.70417C4.86358 5.80192 4.86358 5.96039 4.76595 6.05814L3.33289 7.49289C3.16698 7.659 2.95102 7.74445 2.73362 7.74926C2.72723 7.74975 2.72077 7.75 2.71425 7.75C2.70776 7.75 2.70132 7.74975 2.69496 7.74927C2.47747 7.74451 2.26142 7.65905 2.09545 7.49289L0.662396 6.05814C0.564765 5.96039 0.564765 5.80192 0.662396 5.70417C0.760027 5.60642 0.918318 5.60642 1.01595 5.70417L2.44901 7.13892C2.45399 7.14391 2.45907 7.14872 2.46425 7.15337L2.46425 0.84611C2.45907 0.850755 2.45399 0.855571 2.44901 0.860555L1.01595 2.29531C0.918319 2.39305 0.760028 2.39305 0.662397 2.29531C0.564765 2.19756 0.564765 2.03908 0.662397 1.94134L2.09546 0.506584C2.43716 0.164471 2.99118 0.164472 3.33289 0.506585L4.76595 1.94134C4.86358 2.03908 4.86358 2.19756 4.76595 2.29531C4.66832 2.39305 4.51003 2.39305 4.4124 2.29531L2.97934 0.860556Z" fill="#5B5C5B"/>
</svg>
