<svg width="16" height="18" viewBox="0 0 16 18" fill="none" xmlns="http://www.w3.org/2000/svg">
<path fill-rule="evenodd" clip-rule="evenodd" d="M5.91663 0.25C4.53591 0.25 3.41663 1.36929 3.41663 2.75C2.03591 2.75 0.916626 3.86929 0.916626 5.25V15.25C0.916626 16.6307 2.03592 17.75 3.41663 17.75H10.0833C11.464 17.75 12.5833 16.6307 12.5833 15.25C13.964 15.25 15.0833 14.1307 15.0833 12.75V2.75C15.0833 1.36929 13.964 0.25 12.5833 0.25H5.91663ZM12.5833 14.25C13.4117 14.25 14.0833 13.5784 14.0833 12.75V2.75C14.0833 1.92157 13.4117 1.25 12.5833 1.25H5.91663C5.0882 1.25 4.41663 1.92157 4.41663 2.75H10.0833C11.464 2.75 12.5833 3.86929 12.5833 5.25V14.25ZM1.91663 5.25C1.91663 4.42157 2.5882 3.75 3.41663 3.75H10.0833C10.9117 3.75 11.5833 4.42157 11.5833 5.25V15.25C11.5833 16.0784 10.9117 16.75 10.0833 16.75H3.41663C2.5882 16.75 1.91663 16.0784 1.91663 15.25V5.25Z" fill="#5B5C5B"/>
</svg>
