<svg width="20" height="20" viewBox="0 0 20 20" fill="none" xmlns="http://www.w3.org/2000/svg">
<path d="M8.33329 7.41661C8.60943 7.41661 8.83329 7.64046 8.83329 7.91661V14.1666C8.83329 14.4427 8.60944 14.6666 8.33329 14.6666C8.05715 14.6666 7.83329 14.4427 7.83329 14.1666L7.83329 7.91661C7.83329 7.64046 8.05715 7.41661 8.33329 7.41661Z" fill="#5B5C5B"/>
<path d="M12.1666 7.91661C12.1666 7.64046 11.9428 7.41661 11.6666 7.41661C11.3905 7.41661 11.1666 7.64046 11.1666 7.91661V14.1666C11.1666 14.4427 11.3905 14.6666 11.6666 14.6666C11.9428 14.6666 12.1666 14.4427 12.1666 14.1666V7.91661Z" fill="#5B5C5B"/>
<path fill-rule="evenodd" clip-rule="evenodd" d="M7.08337 2.91669C7.08337 2.22633 7.64302 1.66669 8.33337 1.66669H11.6667C12.3571 1.66669 12.9167 2.22633 12.9167 2.91669V4.00006L16.1667 4.00006C16.4428 4.00006 16.6667 4.22392 16.6667 4.50006C16.6667 4.7762 16.4428 5.00006 16.1667 5.00006H15.8334V15.6667C15.8334 17.0474 14.7141 18.1667 13.3334 18.1667H6.66671C5.286 18.1667 4.16671 17.0474 4.16671 15.6667V5.00006H3.83337C3.55723 5.00006 3.33337 4.7762 3.33337 4.50006C3.33337 4.22392 3.55723 4.00006 3.83337 4.00006H7.08337V2.91669ZM8.33337 2.66669H11.6667C11.8048 2.66669 11.9167 2.77862 11.9167 2.91669V4.00002H8.08337V2.91669C8.08337 2.77862 8.1953 2.66669 8.33337 2.66669ZM5.16671 5.00006H14.8334V15.6667C14.8334 16.4952 14.1618 17.1667 13.3334 17.1667H6.66671C5.83828 17.1667 5.16671 16.4952 5.16671 15.6667V5.00006Z" fill="#5B5C5B"/>
</svg>
