<svg width="16" height="16" viewBox="0 0 16 16" fill="none" xmlns="http://www.w3.org/2000/svg">
<path d="M5.72139 7.7691C5.68553 7.82201 5.68553 7.89151 5.72139 7.94442L7.06472 9.92598C7.13491 10.0295 7.06094 10.1696 6.93606 10.1696H5.96832C5.9168 10.1696 5.86862 10.144 5.83966 10.1013L5.11867 9.03762C5.05695 8.94656 4.92307 8.94656 4.86135 9.03762L4.14036 10.1013C4.1114 10.144 4.06322 10.1696 4.0117 10.1696H3.04396C2.91908 10.1696 2.84511 10.0295 2.9153 9.92598L4.25863 7.94442C4.29449 7.89151 4.29449 7.82201 4.25863 7.7691L2.9153 5.78754C2.84511 5.684 2.91908 5.54393 3.04396 5.54393H4.0117C4.06322 5.54393 4.1114 5.56951 4.14036 5.61223L4.86135 6.67589C4.92307 6.76696 5.05695 6.76696 5.11867 6.67589L5.83966 5.61223C5.86862 5.56951 5.9168 5.54393 5.96832 5.54393H6.93606C7.06094 5.54393 7.13491 5.684 7.06472 5.78754L5.72139 7.7691Z" fill="#5B5C5B"/>
<path fill-rule="evenodd" clip-rule="evenodd" d="M1.57477 2.49318C1.24193 2.55385 1 2.84447 1 3.18361V12.5755C1 12.9146 1.24193 13.2052 1.57477 13.2659L7.8747 14.4142C8.30438 14.4926 8.6999 14.1616 8.6999 13.7238V2.0353C8.6999 1.59747 8.30438 1.26654 7.87469 1.34487L1.57477 2.49318ZM7.99991 2.0353L1.69999 3.18361V12.5755L7.99991 13.7238V2.0353Z" fill="#5B5C5B"/>
<path d="M10.1001 3.49789H11.4999L11.5 7.64912H12.1999V3.37435C12.1999 3.221 12.1409 3.07393 12.0359 2.9655C11.9309 2.85706 11.7884 2.79614 11.6399 2.79614H9.40007V10.4561H10.1001V3.49789Z" fill="#5B5C5B"/>
<path d="M11.9493 14.5484C12.0837 14.7061 12.3164 14.7061 12.4508 14.5484L14.9115 11.6589C15.1089 11.4271 14.9545 11.0559 14.6608 11.0559H13.2156V8.71158C13.2156 8.51239 13.0641 8.35092 12.8771 8.35092H11.523C11.336 8.35092 11.1844 8.51239 11.1844 8.71158V11.0559H9.73927C9.44553 11.0559 9.29118 11.4271 9.48855 11.6589L11.9493 14.5484Z" fill="#5B5C5B"/>
</svg>
