<svg width="18" height="16" viewBox="0 0 18 16" fill="none" xmlns="http://www.w3.org/2000/svg">
<path fill-rule="evenodd" clip-rule="evenodd" d="M9.91821e-05 0.600099C9.91821e-05 0.268728 0.268728 9.91821e-05 0.600099 9.91821e-05H17.4001C17.7315 9.91821e-05 18.0001 0.268728 18.0001 0.600099C18.0001 0.93147 17.7315 1.2001 17.4001 1.2001H0.600099C0.268728 1.2001 9.91821e-05 0.93147 9.91821e-05 0.600099Z" fill="white"/>
<path fill-rule="evenodd" clip-rule="evenodd" d="M9.91821e-05 15.3999C9.91821e-05 15.0685 0.268728 14.7999 0.600099 14.7999H17.4001C17.7315 14.7999 18.0001 15.0685 18.0001 15.3999C18.0001 15.7313 17.7315 15.9999 17.4001 15.9999H0.600099C0.268728 15.9999 9.91821e-05 15.7313 9.91821e-05 15.3999Z" fill="white"/>
<path fill-rule="evenodd" clip-rule="evenodd" d="M9.91821e-05 8C9.91821e-05 7.66863 0.268728 7.4 0.600099 7.4H17.4001C17.7315 7.4 18.0001 7.66863 18.0001 8C18.0001 8.33137 17.7315 8.6 17.4001 8.6H0.600099C0.268728 8.6 9.91821e-05 8.33137 9.91821e-05 8Z" fill="white"/>
</svg>
