<svg width="24" height="24" viewBox="0 0 24 24" fill="none" xmlns="http://www.w3.org/2000/svg">
<path d="M11.9999 8.2C11.2093 8.2 10.5999 8.81698 10.5999 9.53969C10.5999 9.87106 10.3313 10.1397 9.9999 10.1397C9.66853 10.1397 9.3999 9.87106 9.3999 9.53969C9.3999 8.11987 10.5814 7 11.9999 7C13.4184 7 14.5999 8.11987 14.5999 9.53969C14.5999 10.4541 14.1059 11.2482 13.3789 11.6931C13.1437 11.837 12.9362 11.9979 12.7929 12.1673C12.6521 12.3337 12.5999 12.4752 12.5999 12.6C12.5999 12.9314 12.3313 13.2 11.9999 13.2C11.6685 13.2 11.3999 12.9314 11.3999 12.6C11.3999 12.1059 11.6167 11.6996 11.8768 11.3922C12.1344 11.0876 12.4598 10.8487 12.7525 10.6695C13.1482 10.4274 13.3999 10.0078 13.3999 9.53969C13.3999 8.81698 12.7906 8.2 11.9999 8.2Z" fill="#5B5C5B"/>
<path d="M12.9999 15.4999C12.9999 16.0522 12.5522 16.4999 11.9999 16.4999C11.4476 16.4999 10.9999 16.0522 10.9999 15.4999C10.9999 14.9476 11.4476 14.4999 11.9999 14.4999C12.5522 14.4999 12.9999 14.9476 12.9999 15.4999Z" fill="#5B5C5B"/>
<path fill-rule="evenodd" clip-rule="evenodd" d="M22 12C22 17.5228 17.5228 22 12 22C6.47715 22 2 17.5228 2 12C2 6.47715 6.47715 2 12 2C17.5228 2 22 6.47715 22 12ZM20.8 12C20.8 16.8601 16.8601 20.8 12 20.8C7.13989 20.8 3.2 16.8601 3.2 12C3.2 7.13989 7.13989 3.2 12 3.2C16.8601 3.2 20.8 7.13989 20.8 12Z" fill="#5B5C5B"/>
</svg>
