<svg width="10" height="10" viewBox="0 0 10 10" fill="none" xmlns="http://www.w3.org/2000/svg">
<path d="M4.69995 9.2C4.69995 9.36569 4.83427 9.5 4.99995 9.5C5.16564 9.5 5.29995 9.36569 5.29995 9.2V5.29995H9.2C9.36569 5.29995 9.5 5.16564 9.5 4.99995C9.5 4.83427 9.36569 4.69995 9.2 4.69995H5.29995V0.8C5.29995 0.634315 5.16564 0.5 4.99995 0.5C4.83427 0.5 4.69995 0.634315 4.69995 0.8V4.69995H0.8C0.634315 4.69995 0.5 4.83427 0.5 4.99995C0.5 5.16564 0.634315 5.29995 0.8 5.29995H4.69995V9.2Z" fill="#5B5C5B"/>
</svg>
