<svg width="20" height="20" viewBox="0 0 20 20" fill="none" xmlns="http://www.w3.org/2000/svg">
<path d="M9.99988 6.83333C9.341 6.83333 8.83321 7.34748 8.83321 7.94974C8.83321 8.22588 8.60935 8.44974 8.33321 8.44974C8.05707 8.44974 7.83321 8.22588 7.83321 7.94974C7.83321 6.76656 8.8178 5.83333 9.99988 5.83333C11.182 5.83333 12.1665 6.76656 12.1665 7.94974C12.1665 8.71176 11.7549 9.37349 11.149 9.74424C10.9531 9.86417 10.7801 9.99827 10.6607 10.1394C10.5434 10.278 10.4999 10.396 10.4999 10.5C10.4999 10.7761 10.276 11 9.99988 11C9.72374 11 9.49988 10.7761 9.49988 10.5C9.49988 10.0883 9.6805 9.74968 9.89729 9.49347C10.112 9.2397 10.3831 9.04055 10.6271 8.89127C10.9568 8.68951 11.1665 8.33987 11.1665 7.94974C11.1665 7.34748 10.6588 6.83333 9.99988 6.83333Z" fill="#5B5C5B"/>
<path d="M10.8332 12.9166C10.8332 13.3768 10.4601 13.7499 9.99988 13.7499C9.53964 13.7499 9.16655 13.3768 9.16655 12.9166C9.16655 12.4563 9.53964 12.0833 9.99988 12.0833C10.4601 12.0833 10.8332 12.4563 10.8332 12.9166Z" fill="#5B5C5B"/>
<path fill-rule="evenodd" clip-rule="evenodd" d="M18.3333 10C18.3333 14.6024 14.6023 18.3333 9.99996 18.3333C5.39759 18.3333 1.66663 14.6024 1.66663 10C1.66663 5.39762 5.39759 1.66666 9.99996 1.66666C14.6023 1.66666 18.3333 5.39762 18.3333 10ZM17.3333 10C17.3333 14.0501 14.05 17.3333 9.99996 17.3333C5.94987 17.3333 2.66663 14.0501 2.66663 10C2.66663 5.94991 5.94987 2.66666 9.99996 2.66666C14.05 2.66666 17.3333 5.94991 17.3333 10Z" fill="#5B5C5B"/>
</svg>
