<svg width="20" height="20" viewBox="0 0 20 20" fill="none" xmlns="http://www.w3.org/2000/svg">
<path d="M9.9999 6.2C9.20925 6.2 8.5999 6.81698 8.5999 7.53969C8.5999 7.87106 8.33127 8.13969 7.9999 8.13969C7.66853 8.13969 7.3999 7.87106 7.3999 7.53969C7.3999 6.11987 8.58141 5 9.9999 5C11.4184 5 12.5999 6.11987 12.5999 7.53969C12.5999 8.45411 12.1059 9.24819 11.3789 9.69309C11.1437 9.837 10.9362 9.99793 10.7929 10.1673C10.6521 10.3337 10.5999 10.4752 10.5999 10.6C10.5999 10.9314 10.3313 11.2 9.9999 11.2C9.66853 11.2 9.3999 10.9314 9.3999 10.6C9.3999 10.1059 9.61665 9.69962 9.87679 9.39216C10.1344 9.08764 10.4598 8.84867 10.7525 8.66953C11.1482 8.42741 11.3999 8.00784 11.3999 7.53969C11.3999 6.81698 10.7906 6.2 9.9999 6.2Z" fill="#5B5C5B"/>
<path d="M10.9999 13.4999C10.9999 14.0522 10.5522 14.4999 9.9999 14.4999C9.44762 14.4999 8.9999 14.0522 8.9999 13.4999C8.9999 12.9476 9.44762 12.4999 9.9999 12.4999C10.5522 12.4999 10.9999 12.9476 10.9999 13.4999Z" fill="#5B5C5B"/>
<path fill-rule="evenodd" clip-rule="evenodd" d="M20 10C20 15.5228 15.5228 20 10 20C4.47715 20 0 15.5228 0 10C0 4.47715 4.47715 0 10 0C15.5228 0 20 4.47715 20 10ZM18.8 10C18.8 14.8601 14.8601 18.8 10 18.8C5.13989 18.8 1.2 14.8601 1.2 10C1.2 5.13989 5.13989 1.2 10 1.2C14.8601 1.2 18.8 5.13989 18.8 10Z" fill="#5B5C5B"/>
</svg>
