<svg width="16" height="16" viewBox="0 0 16 16" fill="none" xmlns="http://www.w3.org/2000/svg">
<path fill-rule="evenodd" clip-rule="evenodd" d="M3.30229 3.71757C4.20665 2.71318 5.40577 2.02087 6.72778 1.73987C8.04979 1.45886 9.42683 1.6036 10.6615 2.15332C11.8962 2.70304 12.9252 3.62954 13.601 4.80001C13.7114 4.99133 13.6459 5.23596 13.4546 5.34642C13.2633 5.45688 13.0186 5.39133 12.9082 5.20001C12.3169 4.17585 11.4165 3.36516 10.3361 2.88416C9.25578 2.40315 8.05087 2.27651 6.89411 2.52238C5.73735 2.76826 4.68812 3.37403 3.8968 4.25288C3.10549 5.13173 2.61271 6.23853 2.48909 7.41465C2.466 7.63435 2.26918 7.79374 2.04947 7.77065C1.82977 7.74756 1.67038 7.55073 1.69347 7.33103C1.83475 5.98689 2.39793 4.72197 3.30229 3.71757ZM2.66237 10.6535C2.85369 10.5431 3.09833 10.6086 3.20878 10.7999C3.80009 11.8241 4.70044 12.6348 5.7808 13.1158C6.86116 13.5968 8.06607 13.7234 9.22283 13.4776C10.3796 13.2317 11.4288 12.6259 12.2201 11.7471C13.0115 10.8682 13.5042 9.76143 13.6278 8.5853C13.6509 8.3656 13.8478 8.20621 14.0675 8.22931C14.2872 8.2524 14.4466 8.44922 14.4235 8.66893C14.2822 10.0131 13.719 11.278 12.8147 12.2824C11.9103 13.2868 10.7112 13.9791 9.38916 14.2601C8.06715 14.5411 6.69011 14.3964 5.45541 13.8466C4.22071 13.2969 3.19174 12.3704 2.51596 11.1999C2.40551 11.0086 2.47106 10.764 2.66237 10.6535Z" fill="#5B5C5B"/>
<path fill-rule="evenodd" clip-rule="evenodd" d="M10.6617 5.34206C10.6963 5.12386 10.9012 4.975 11.1194 5.00956L13.2545 5.34773C13.4 5.37077 13.5366 5.27153 13.5596 5.12606L13.8978 2.99092C13.9324 2.77272 14.1373 2.62386 14.3555 2.65842C14.5737 2.69297 14.7225 2.89787 14.688 3.11606L14.3498 5.25121C14.2576 5.83306 13.7112 6.23004 13.1294 6.13788L10.9942 5.79971C10.7761 5.76515 10.6272 5.56025 10.6617 5.34206Z" fill="#5B5C5B"/>
<path fill-rule="evenodd" clip-rule="evenodd" d="M5.58395 11.0753C5.52677 11.2887 5.30743 11.4153 5.09405 11.3582L3.00595 10.7987C2.86369 10.7605 2.71747 10.845 2.67935 10.9872L2.11984 13.0753C2.06267 13.2887 1.84333 13.4153 1.62995 13.3582C1.41656 13.301 1.28993 13.0817 1.3471 12.8683L1.90661 10.7802C2.05908 10.2111 2.64397 9.87345 3.213 10.0259L5.3011 10.5854C5.51449 10.6426 5.64112 10.8619 5.58395 11.0753Z" fill="#5B5C5B"/>
</svg>
