<svg width="17" height="16" viewBox="0 0 17 16" fill="none" xmlns="http://www.w3.org/2000/svg">
<path fill-rule="evenodd" clip-rule="evenodd" d="M8.00004 1.08342C4.18007 1.08342 1.08337 4.18012 1.08337 8.00009C1.08337 11.8201 4.18007 14.9168 8.00004 14.9168C11.6731 14.9168 14.6777 12.0534 14.9031 8.43751C14.9203 8.1619 15.1576 7.95241 15.4333 7.96959C15.7089 7.98677 15.9184 8.22412 15.9012 8.49973C15.6431 12.6394 12.2045 15.9168 8.00004 15.9168C3.62779 15.9168 0.083374 12.3723 0.083374 8.00009C0.083374 3.62783 3.62779 0.0834198 8.00004 0.0834198C10.9141 0.0834198 13.4598 1.65812 14.8335 4.0006C14.9732 4.2388 14.8934 4.54515 14.6552 4.68485C14.417 4.82454 14.1106 4.74469 13.9709 4.50649C12.7693 2.45745 10.5448 1.08342 8.00004 1.08342Z" fill="#5B5C5B"/>
<path fill-rule="evenodd" clip-rule="evenodd" d="M15.5693 0.238287C15.8439 0.267152 16.0431 0.513183 16.0143 0.787813L15.6658 4.10289C15.5889 4.83523 14.9328 5.36652 14.2004 5.28954L10.8854 4.94112C10.6107 4.91225 10.4115 4.66622 10.4404 4.39159C10.4692 4.11696 10.7153 3.91773 10.9899 3.94659L14.305 4.29502C14.4881 4.31426 14.6521 4.18144 14.6713 3.99836L15.0197 0.683284C15.0486 0.408655 15.2946 0.209423 15.5693 0.238287Z" fill="#5B5C5B"/>
</svg>
