<svg width="14" height="14" viewBox="0 0 14 14" fill="none" xmlns="http://www.w3.org/2000/svg">
<path fill-rule="evenodd" clip-rule="evenodd" d="M2.30229 2.71757C3.20665 1.71318 4.40577 1.02087 5.72778 0.739866C7.04979 0.458863 8.42683 0.603596 9.66153 1.15332C10.8962 1.70304 11.9252 2.62954 12.601 3.80001C12.7114 3.99133 12.6459 4.23596 12.4546 4.34642C12.2633 4.45688 12.0186 4.39133 11.9082 4.20001C11.3169 3.17585 10.4165 2.36516 9.33614 1.88416C8.25578 1.40315 7.05087 1.27651 5.89411 1.52238C4.73735 1.76826 3.68812 2.37403 2.8968 3.25288C2.10549 4.13173 1.61271 5.23853 1.48909 6.41465C1.466 6.63435 1.26918 6.79374 1.04947 6.77065C0.829768 6.74756 0.670383 6.55073 0.693475 6.33103C0.83475 4.98689 1.39793 3.72197 2.30229 2.71757ZM1.66237 9.65353C1.85369 9.54308 2.09833 9.60863 2.20878 9.79994C2.80009 10.8241 3.70044 11.6348 4.7808 12.1158C5.86116 12.5968 7.06607 12.7234 8.22283 12.4776C9.37959 12.2317 10.4288 11.6259 11.2201 10.7471C12.0115 9.86823 12.5042 8.76143 12.6278 7.5853C12.6509 7.3656 12.8478 7.20621 13.0675 7.22931C13.2872 7.2524 13.4466 7.44922 13.4235 7.66893C13.2822 9.01307 12.719 10.278 11.8147 11.2824C10.9103 12.2868 9.71117 12.9791 8.38916 13.2601C7.06715 13.5411 5.69011 13.3964 4.45541 12.8466C3.22071 12.2969 2.19174 11.3704 1.51596 10.1999C1.40551 10.0086 1.47106 9.76399 1.66237 9.65353Z" fill="#5B5C5B"/>
<path fill-rule="evenodd" clip-rule="evenodd" d="M9.66175 4.34206C9.6963 4.12386 9.9012 3.975 10.1194 4.00956L12.2545 4.34773C12.4 4.37077 12.5366 4.27153 12.5596 4.12606L12.8978 1.99092C12.9324 1.77272 13.1373 1.62386 13.3555 1.65842C13.5737 1.69297 13.7225 1.89787 13.688 2.11606L13.3498 4.25121C13.2576 4.83306 12.7112 5.23004 12.1294 5.13788L9.99425 4.79971C9.77605 4.76515 9.62719 4.56025 9.66175 4.34206Z" fill="#5B5C5B"/>
<path fill-rule="evenodd" clip-rule="evenodd" d="M4.58395 10.0753C4.52677 10.2887 4.30743 10.4153 4.09405 10.3582L2.00595 9.79866C1.86369 9.76054 1.71747 9.84497 1.67935 9.98722L1.11984 12.0753C1.06267 12.2887 0.843332 12.4153 0.629946 12.3582C0.416559 12.301 0.289926 12.0817 0.347103 11.8683L0.906608 9.78017C1.05908 9.21114 1.64397 8.87345 2.213 9.02592L4.3011 9.58543C4.51449 9.6426 4.64112 9.86194 4.58395 10.0753Z" fill="#5B5C5B"/>
</svg>
