<svg width="14" height="14" viewBox="0 0 14 14" fill="none" xmlns="http://www.w3.org/2000/svg">
<path fill-rule="evenodd" clip-rule="evenodd" d="M9.71412 10.2799C8.71951 11.1438 7.42084 11.6667 6.00004 11.6667C2.87043 11.6667 0.333374 9.12961 0.333374 6C0.333374 2.87038 2.87043 0.333328 6.00004 0.333328C9.12965 0.333328 11.6667 2.87038 11.6667 6C11.6667 7.42088 11.1438 8.71962 10.2798 9.71424L13.5494 12.9838C13.7056 13.14 13.7056 13.3933 13.5494 13.5495C13.3932 13.7057 13.1399 13.7057 12.9837 13.5495L9.71412 10.2799ZM10.8667 6C10.8667 8.68778 8.68783 10.8667 6.00004 10.8667C3.31225 10.8667 1.13337 8.68778 1.13337 6C1.13337 3.31221 3.31225 1.13333 6.00004 1.13333C8.68783 1.13333 10.8667 3.31221 10.8667 6Z" fill="#1F1F1F"/>
</svg>
