<svg width="18" height="18" viewBox="0 0 18 18" fill="none" xmlns="http://www.w3.org/2000/svg">
<path fill-rule="evenodd" clip-rule="evenodd" d="M12.3926 13.0999C11.1493 14.1797 9.52596 14.8333 7.74996 14.8333C3.83794 14.8333 0.666626 11.662 0.666626 7.75C0.666626 3.83799 3.83794 0.666672 7.74996 0.666672C11.662 0.666672 14.8333 3.83799 14.8333 7.75C14.8333 9.52611 14.1796 11.1495 13.0997 12.3928L17.1866 16.4798C17.3819 16.675 17.3819 16.9916 17.1866 17.1869C16.9914 17.3821 16.6748 17.3821 16.4795 17.1869L12.3926 13.0999ZM13.8333 7.75C13.8333 11.1097 11.1097 13.8333 7.74996 13.8333C4.39023 13.8333 1.66663 11.1097 1.66663 7.75C1.66663 4.39027 4.39023 1.66667 7.74996 1.66667C11.1097 1.66667 13.8333 4.39027 13.8333 7.75Z" fill="white" stroke="white" stroke-width="0.4" stroke-linecap="round"/>
</svg>
