<svg width="20" height="20" viewBox="0 0 20 20" fill="none"
  xmlns="http://www.w3.org/2000/svg">
  <path fill-rule="evenodd" clip-rule="evenodd" d="M13.3926 14.0999C12.1493 15.1797 10.526 15.8333 8.74996 15.8333C4.83794 15.8333 1.66663 12.662 1.66663 8.75C1.66663 4.83799 4.83794 1.66667 8.74996 1.66667C12.662 1.66667 15.8333 4.83799 15.8333 8.75C15.8333 10.5261 15.1796 12.1495 14.0997 13.3928L18.1866 17.4798C18.3819 17.675 18.3819 17.9916 18.1866 18.1869C17.9914 18.3821 17.6748 18.3821 17.4795 18.1869L13.3926 14.0999ZM14.8333 8.75C14.8333 12.1097 12.1097 14.8333 8.74996 14.8333C5.39023 14.8333 2.66663 12.1097 2.66663 8.75C2.66663 5.39027 5.39023 2.66667 8.74996 2.66667C12.1097 2.66667 14.8333 5.39027 14.8333 8.75Z" fill="#575757" stroke="#575757" stroke-width="0.4" stroke-linecap="round"/>
</svg>
