<svg width="16" height="16" viewBox="0 0 16 16" fill="none" xmlns="http://www.w3.org/2000/svg">
<path fill-rule="evenodd" clip-rule="evenodd" d="M10.7141 11.2799C9.71951 12.1438 8.42084 12.6667 7.00004 12.6667C3.87043 12.6667 1.33337 10.1296 1.33337 7C1.33337 3.87038 3.87043 1.33333 7.00004 1.33333C10.1297 1.33333 12.6667 3.87038 12.6667 7C12.6667 8.42088 12.1438 9.71962 11.2798 10.7142L14.5494 13.9838C14.7056 14.14 14.7056 14.3933 14.5494 14.5495C14.3932 14.7057 14.1399 14.7057 13.9837 14.5495L10.7141 11.2799ZM11.8667 7C11.8667 9.68778 9.68783 11.8667 7.00004 11.8667C4.31225 11.8667 2.13337 9.68778 2.13337 7C2.13337 4.31221 4.31225 2.13333 7.00004 2.13333C9.68783 2.13333 11.8667 4.31221 11.8667 7Z" fill="#1F1F1F"/>
</svg>
