<svg width="10" height="10" viewBox="0 0 10 10" fill="none" xmlns="http://www.w3.org/2000/svg">
<path d="M5.16673 6.59296C5.12245 6.64016 5.06239 6.66667 4.99976 6.66667C4.93714 6.66667 4.87708 6.64016 4.83279 6.59296L2.56891 4.17952C2.53599 4.14431 2.51358 4.0995 2.50451 4.05074C2.49544 4.00197 2.50012 3.95144 2.51795 3.9055C2.53578 3.85956 2.56597 3.82028 2.60471 3.79261C2.64345 3.76494 2.68901 3.75012 2.73564 3.75001L7.26341 3.75001C7.31018 3.74992 7.35592 3.76463 7.39484 3.79229C7.43375 3.81995 7.46409 3.8593 7.482 3.90536C7.49991 3.95142 7.50459 4.00212 7.49544 4.05101C7.48629 4.09991 7.46373 4.14481 7.43062 4.18002L5.16673 6.59296Z" fill="#5B5C5B"/>
</svg>
