<svg width="24" height="24" viewBox="0 0 24 24" fill="none" xmlns="http://www.w3.org/2000/svg">
<path fill-rule="evenodd" clip-rule="evenodd" d="M16 12C16 14.2091 14.2091 16 12 16C9.79086 16 8 14.2091 8 12C8 9.79086 9.79086 8 12 8C14.2091 8 16 9.79086 16 12ZM14.8 12C14.8 13.5464 13.5464 14.8 12 14.8C10.4536 14.8 9.2 13.5464 9.2 12C9.2 10.4536 10.4536 9.2 12 9.2C13.5464 9.2 14.8 10.4536 14.8 12Z" fill="#5B5C5B"/>
<path fill-rule="evenodd" clip-rule="evenodd" d="M11.1712 2C10.4829 2 9.88289 2.46845 9.71595 3.1362L9.50815 3.96741C9.43523 4.25907 9.21721 4.49121 8.93948 4.60631C8.66178 4.72138 8.34581 4.71033 8.08805 4.55567L7.35164 4.11382C6.76143 3.7597 6.00594 3.8527 5.51924 4.3394L4.34709 5.51155C3.86039 5.99826 3.76738 6.75374 4.12151 7.34396L4.55988 8.07457C4.71531 8.33363 4.72616 8.65126 4.61015 8.93022C4.49446 9.20841 4.26172 9.42676 3.96942 9.49983L3.14108 9.70692C2.47333 9.87386 2.00488 10.4738 2.00488 11.1621V12.8198C2.00488 13.5081 2.47333 14.1081 3.14108 14.275L3.95758 14.4791C4.2529 14.553 4.4878 14.774 4.60414 15.0553C4.72027 15.3361 4.70911 15.6555 4.55277 15.916L4.11895 16.6391C3.76482 17.2293 3.85783 17.9848 4.34453 18.4715L5.51668 19.6436C6.00338 20.1303 6.75887 20.2233 7.34908 19.8692L8.06252 19.4411C8.32552 19.2834 8.64796 19.2725 8.93116 19.3902C9.21368 19.5077 9.43561 19.7439 9.50982 20.0407L9.71204 20.8496C9.87898 21.5174 10.479 21.9858 11.1673 21.9858H12.8249C13.5132 21.9858 14.1132 21.5174 14.2801 20.8496L14.4813 20.0452C14.5557 19.7475 14.7785 19.5106 15.0619 19.3931C15.3455 19.2755 15.6682 19.2865 15.9314 19.4445L16.644 19.872C17.2343 20.2261 17.9897 20.1331 18.4764 19.6464L19.6486 18.4743C20.1353 17.9876 20.2283 17.2321 19.8742 16.6419L19.445 15.9266C19.2877 15.6644 19.2767 15.3429 19.3937 15.0604C19.5108 14.7779 19.7469 14.5558 20.0436 14.4817L20.8545 14.2789C21.5223 14.112 21.9907 13.512 21.9907 12.8237V11.166C21.9907 10.4777 21.5223 9.87776 20.8545 9.71082L20.0354 9.50603C19.7413 9.43252 19.5072 9.21273 19.3909 8.93281C19.2744 8.65235 19.2853 8.33308 19.4416 8.07266L19.8771 7.34668C20.2313 6.75646 20.1383 6.00098 19.6516 5.51427L18.4794 4.34212C17.9927 3.85542 17.2372 3.76241 16.647 4.11654L15.9146 4.55599C15.6563 4.71098 15.3396 4.72201 15.0614 4.60665C14.7831 4.49131 14.5647 4.25874 14.4916 3.96653L14.284 3.1362C14.1171 2.46845 13.5171 2 12.8288 2H11.1712ZM17.2644 5.14553C17.3824 5.07471 17.5335 5.09331 17.6309 5.19065L18.803 6.3628C18.9004 6.46014 18.919 6.61124 18.8482 6.72928L18.4126 7.45526C18.0413 8.07396 18.0351 8.79709 18.2828 9.39321C18.5284 9.98438 19.0423 10.4947 19.7443 10.6702L20.5635 10.875C20.697 10.9084 20.7907 11.0284 20.7907 11.166V12.8237C20.7907 12.9614 20.697 13.0814 20.5635 13.1148L19.7526 13.3175C19.0472 13.4938 18.5313 14.0071 18.2851 14.601C18.0375 15.1988 18.0438 15.9237 18.416 16.544L18.8452 17.2593C18.916 17.3773 18.8974 17.5284 18.8001 17.6258L17.6279 18.7979C17.5306 18.8953 17.3795 18.9139 17.2614 18.843L16.5488 18.4155C15.9273 18.0425 15.201 18.0364 14.6023 18.2846C14.0077 18.5311 13.4937 19.0477 13.3171 19.7542L13.116 20.5586C13.0826 20.6922 12.9626 20.7858 12.8249 20.7858H11.1673C11.0296 20.7858 10.9096 20.6922 10.8762 20.5586L10.674 19.7497C10.4977 19.0447 9.98509 18.5288 9.39181 18.2822C8.79326 18.0333 8.0668 18.0392 7.44513 18.4122L6.73169 18.8402C6.61365 18.911 6.46255 18.8924 6.36521 18.7951L5.19306 17.623C5.09572 17.5256 5.07712 17.3745 5.14794 17.2565L5.58176 16.5334C5.95271 15.9152 5.95955 15.1927 5.71305 14.5967C5.46772 14.0035 4.95272 13.491 4.24862 13.315L3.43212 13.1108C3.29857 13.0775 3.20488 12.9575 3.20488 12.8198V11.1621C3.20488 11.0245 3.29857 10.9045 3.43212 10.8711L4.26046 10.664C4.96028 10.489 5.47299 9.98052 5.71815 9.39101C5.96556 8.79612 5.95926 8.07449 5.58887 7.45717L5.1505 6.72656C5.07968 6.60852 5.09828 6.45742 5.19562 6.36008L6.36777 5.18793C6.46511 5.09059 6.61621 5.07199 6.73425 5.14282L7.47066 5.58466C8.08603 5.95389 8.80536 5.96084 9.39887 5.71489C9.98865 5.47049 10.4974 4.95809 10.6723 4.25846L10.8801 3.42724C10.9135 3.29369 11.0335 3.2 11.1712 3.2H12.8288C12.9665 3.2 13.0865 3.29369 13.1199 3.42724L13.3275 4.25758C13.5025 4.95779 14.0117 5.47055 14.6018 5.71518C15.1959 5.96144 15.916 5.9546 16.532 5.58498L17.2644 5.14553Z" fill="#5B5C5B"/>
</svg>
