<svg width="11" height="10" viewBox="0 0 11 10" fill="none" xmlns="http://www.w3.org/2000/svg">
<path fill-rule="evenodd" clip-rule="evenodd" d="M5.97934 1.86056C5.97441 1.85562 5.96938 1.85085 5.96425 1.84625L5.96425 8.15322C5.96938 8.14862 5.97441 8.14385 5.97934 8.13892L7.4124 6.70417C7.51003 6.60642 7.66832 6.60642 7.76595 6.70417C7.86358 6.80192 7.86358 6.96039 7.76595 7.05814L6.33289 8.49289C6.16698 8.659 5.95102 8.74445 5.73362 8.74926C5.72723 8.74975 5.72077 8.75 5.71425 8.75C5.70776 8.75 5.70132 8.74975 5.69496 8.74927C5.47747 8.74451 5.26142 8.65905 5.09545 8.49289L3.6624 7.05814C3.56476 6.96039 3.56476 6.80192 3.6624 6.70417C3.76003 6.60642 3.91832 6.60642 4.01595 6.70417L5.44901 8.13892C5.45399 8.14391 5.45907 8.14872 5.46425 8.15337L5.46425 1.84611C5.45907 1.85076 5.45399 1.85557 5.44901 1.86056L4.01595 3.29531C3.91832 3.39305 3.76003 3.39305 3.6624 3.29531C3.56477 3.19756 3.56477 3.03908 3.6624 2.94134L5.09546 1.50658C5.43716 1.16447 5.99118 1.16447 6.33289 1.50658L7.76595 2.94134C7.86358 3.03908 7.86358 3.19756 7.76595 3.29531C7.66832 3.39305 7.51003 3.39305 7.4124 3.29531L5.97934 1.86056Z" fill="#5B5C5B"/>
</svg>
