<svg width="22" height="20" viewBox="0 0 22 20" fill="none" xmlns="http://www.w3.org/2000/svg">
<path fill-rule="evenodd" clip-rule="evenodd" d="M14.5926 6.87659C14.2014 6.81956 13.8634 6.57354 13.6889 6.21882L11.3183 1.39968C11.1873 1.13344 10.8129 1.13344 10.6819 1.39968L8.3113 6.21882C8.13681 6.57354 7.79882 6.81956 7.40764 6.87659L2.10683 7.64937C1.81946 7.69127 1.69356 8.05387 1.9106 8.26612L5.7463 12.0173C6.02801 12.2928 6.15651 12.689 6.09012 13.0774L5.18463 18.3742C5.13281 18.6773 5.44597 18.8893 5.69906 18.7559L10.4403 16.2551C10.7906 16.0703 11.2096 16.0703 11.5599 16.2551L16.3011 18.7559C16.5542 18.8893 16.8674 18.6773 16.8156 18.3742L15.9101 13.0774C15.8437 12.689 15.9722 12.2928 16.2539 12.0173L20.0896 8.26612C20.3066 8.05387 20.1807 7.69127 19.8934 7.64937L14.5926 6.87659ZM12.3951 0.870003C11.8245 -0.290001 10.1757 -0.290001 9.60512 0.870003L7.23453 5.68914L1.93372 6.46193C0.65777 6.64794 0.148292 8.22111 1.07157 9.12405L4.90728 12.8752L4.00179 18.172C3.78383 19.4469 5.11767 20.4192 6.25891 19.8173L11.0001 17.3165L15.7413 19.8173C16.8825 20.4192 18.2164 19.4469 17.9984 18.172L17.0929 12.8752L20.9286 9.12405C21.8519 8.22111 21.3424 6.64794 20.0665 6.46193L14.7657 5.68914L12.3951 0.870003Z" fill="#5B5C5B"/>
</svg>
