<svg width="22" height="22" viewBox="0 0 22 22" fill="none"
  xmlns="http://www.w3.org/2000/svg">
  <path fill-rule="evenodd" clip-rule="evenodd" d="M11 15.4C13.4301 15.4 15.4 13.4301 15.4 11C15.4 8.56995 13.4301 6.6 11 6.6C8.56998 6.6 6.60003 8.56995 6.60003 11C6.60003 13.4301 8.56998 15.4 11 15.4ZM11 16.5C14.0376 16.5 16.5 14.0376 16.5 11C16.5 7.96243 14.0376 5.5 11 5.5C7.96247 5.5 5.50003 7.96243 5.50003 11C5.50003 14.0376 7.96247 16.5 11 16.5Z" fill="#5B5C5B"/>
  <path fill-rule="evenodd" clip-rule="evenodd" d="M10.9998 1.83342C11.3036 1.83342 11.5498 2.07967 11.5498 2.38342V4.03351C11.5498 4.33727 11.3036 4.58351 10.9998 4.58351C10.6961 4.58351 10.4498 4.33727 10.4498 4.03351V2.38342C10.4498 2.07967 10.6961 1.83342 10.9998 1.83342ZM17.4816 4.51819C17.6964 4.73298 17.6964 5.08122 17.4816 5.29601L16.3149 6.46279C16.1001 6.67758 15.7518 6.67758 15.537 6.46279C15.3222 6.24801 15.3222 5.89977 15.537 5.68498L16.7038 4.51819C16.9186 4.3034 17.2669 4.3034 17.4816 4.51819ZM4.51766 4.51828C4.73245 4.30349 5.08069 4.30349 5.29548 4.51828L6.46214 5.68494C6.67693 5.89973 6.67693 6.24797 6.46214 6.46276C6.24735 6.67755 5.89911 6.67755 5.68432 6.46276L4.51766 5.2961C4.30287 5.08131 4.30287 4.73307 4.51766 4.51828ZM1.83301 11C1.83301 10.6963 2.07925 10.45 2.38301 10.45H4.03292C4.33668 10.45 4.58292 10.6963 4.58292 11C4.58292 11.3038 4.33668 11.55 4.03292 11.55H2.38301C2.07925 11.55 1.83301 11.3038 1.83301 11ZM17.4163 11C17.4163 10.6963 17.6625 10.45 17.9663 10.45H19.6163C19.9201 10.45 20.1663 10.6963 20.1663 11C20.1663 11.3038 19.9201 11.55 19.6163 11.55H17.9663C17.6625 11.55 17.4163 11.3038 17.4163 11ZM15.5367 15.5373C15.7515 15.3225 16.0997 15.3225 16.3145 15.5373L17.4813 16.7041C17.6961 16.9189 17.6961 17.2671 17.4813 17.4819C17.2665 17.6967 16.9183 17.6967 16.7035 17.4819L15.5367 16.3151C15.3219 16.1003 15.3219 15.7521 15.5367 15.5373ZM6.4625 15.5373C6.67729 15.7521 6.67729 16.1004 6.4625 16.3151L5.29584 17.4818C5.08105 17.6966 4.73281 17.6966 4.51802 17.4818C4.30323 17.267 4.30323 16.9188 4.51802 16.704L5.68468 15.5373C5.89947 15.3225 6.24771 15.3225 6.4625 15.5373ZM10.9998 17.4168C11.3036 17.4168 11.5498 17.6631 11.5498 17.9668V19.6168C11.5498 19.9205 11.3036 20.1668 10.9998 20.1668C10.6961 20.1668 10.4498 19.9205 10.4498 19.6168V17.9668C10.4498 17.6631 10.6961 17.4168 10.9998 17.4168Z" fill="#5B5C5B"/>
</svg>
